<svg xmlns="http://www.w3.org/2000/svg">

  <symbol id="delete" viewBox="0 0 384 384">
    <title>Icon delete</title>
    <g>
			<path d="M64,341.333C64,364.907,83.093,384,106.667,384h170.667C300.907,384,320,364.907,320,341.333v-256H64V341.333z"/>
			<polygon points="266.667,21.333 245.333,0 138.667,0 117.333,21.333 42.667,21.333 42.667,64 341.333,64 341.333,21.333 			"/>
		</g>
  </symbol>

  <symbol id="check" viewBox="0 0 26 26">
    <title>Icon check</title>
    <path d="m.3,14c-0.2-0.2-0.3-0.5-0.3-0.7s0.1-0.5 0.3-0.7l1.4-1.4c0.4-0.4 1-0.4 1.4,0l.1,.1 5.5,5.9c0.2,0.2 0.5,0.2 0.7,0l13.4-13.9h0.1v-8.88178e-16c0.4-0.4 1-0.4 1.4,0l1.4,1.4c0.4,0.4 0.4,1 0,1.4l0,0-16,16.6c-0.2,0.2-0.4,0.3-0.7,0.3-0.3,0-0.5-0.1-0.7-0.3l-7.8-8.4-.2-.3z"/>
  </symbol>

  <symbol id="config" viewBox="0 0 512 512">
    <title>Icon config</title>
    <path d="M500.633,211.454l-58.729-14.443c-3.53-11.133-8.071-21.929-13.55-32.256c8.818-14.678,27.349-45.571,27.349-45.571 c3.545-5.903,2.607-13.462-2.256-18.325l-42.422-42.422c-4.863-4.878-12.407-5.815-18.325-2.256L347.055,83.53 c-10.269-5.435-21.006-9.932-32.065-13.433l-14.443-58.729C298.876,4.688,292.885,0,286,0h-60 c-6.885,0-12.891,4.688-14.546,11.367c0,0-10.005,40.99-14.429,58.715c-11.792,3.735-23.188,8.584-34.043,14.502l-47.329-28.403 c-5.918-3.516-13.447-2.607-18.325,2.256l-42.422,42.422c-4.863,4.863-5.801,12.422-2.256,18.325l29.268,48.882 c-4.717,9.302-8.672,18.984-11.821,28.901l-58.729,14.487C4.688,213.124,0,219.115,0,226v60c0,6.885,4.688,12.891,11.367,14.546 l58.744,14.443c3.56,11.294,8.188,22.266,13.799,32.798l-26.191,43.652c-3.545,5.903-2.607,13.462,2.256,18.325l42.422,42.422 c4.849,4.849,12.407,5.771,18.325,2.256c0,0,29.37-17.607,43.755-26.221c10.415,5.552,21.313,10.137,32.549,13.696l14.429,58.715 C213.109,507.313,219.115,512,226,512h60c6.885,0,12.876-4.688,14.546-11.367l14.429-58.715 c11.558-3.662,22.69-8.394,33.281-14.136c14.78,8.862,44.443,26.66,44.443,26.66c5.903,3.53,13.462,2.622,18.325-2.256 l42.422-42.422c4.863-4.863,5.801-12.422,2.256-18.325l-26.968-44.927c5.317-10.093,9.727-20.654,13.169-31.523l58.729-14.443 C507.313,298.876,512,292.885,512,286v-60C512,219.115,507.313,213.124,500.633,211.454z M256,361c-57.891,0-105-47.109-105-105 s47.109-105,105-105s105,47.109,105,105S313.891,361,256,361z"/>
  </symbol>

  <symbol id="twitter" viewBox="0 0 612 612">
    <title>Icon twitter</title>
    <path d="M612,116.258c-22.525,9.981-46.694,16.75-72.088,19.772c25.929-15.527,45.777-40.155,55.184-69.411 c-24.322,14.379-51.169,24.82-79.775,30.48c-22.907-24.437-55.49-39.658-91.63-39.658c-69.334,0-125.551,56.217-125.551,125.513 c0,9.828,1.109,19.427,3.251,28.606C197.065,206.32,104.556,156.337,42.641,80.386c-10.823,18.51-16.98,40.078-16.98,63.101 c0,43.559,22.181,81.993,55.835,104.479c-20.575-0.688-39.926-6.348-56.867-15.756v1.568c0,60.806,43.291,111.554,100.693,123.104 c-10.517,2.83-21.607,4.398-33.08,4.398c-8.107,0-15.947-0.803-23.634-2.333c15.985,49.907,62.336,86.199,117.253,87.194 c-42.947,33.654-97.099,53.655-155.916,53.655c-10.134,0-20.116-0.612-29.944-1.721c55.567,35.681,121.536,56.485,192.438,56.485 c230.948,0,357.188-191.291,357.188-357.188l-0.421-16.253C573.872,163.526,595.211,141.422,612,116.258z"/>    
  </symbol>

  <symbol id="cancel" viewBox="0 0 429.92093 429.92093">
    <title>Icon cancel</title>
    <g>
      <path d="m366.960938 62.960938c-83.949219-83.949219-220.054688-83.949219-304 0-83.949219 83.945312-83.949219 220.050781 0 304 83.945312 83.945312 220.050781 83.945312 304 0 83.945312-83.949219 83.945312-220.054688 0-304zm-46.699219 162h-216.402344c-5.523437 0-10-4.476563-10-10 0-5.523438 4.476563-10 10-10h216.402344c5.523437 0 10 4.476562 10 10 0 5.523437-4.476563 10-10 10zm0 0"/>
    </g>
  </symbol>
    
  <symbol id="book" viewBox="0 0 512.004 512.004">
    <title>Icon book</title>
    <g>
			<path d="M291.057,242.811c1.51,2.953,4.514,4.659,7.62,4.659c1.297,0,2.628-0.299,3.866-0.93
				c0.503-0.256,50.731-25.771,75.503-33.596c4.489-1.425,6.98-6.221,5.555-10.709c-1.417-4.489-6.178-6.989-10.709-5.572
				c-26.095,8.252-75.981,33.596-78.097,34.671C290.596,233.467,288.924,238.605,291.057,242.811z"/>
			<path d="M298.677,145.071c1.297,0,2.628-0.299,3.866-0.93c0.503-0.256,50.731-25.771,75.503-33.596
				c4.489-1.425,6.98-6.221,5.555-10.709c-1.417-4.489-6.178-6.989-10.709-5.572c-26.095,8.252-75.981,33.596-78.097,34.671
				c-4.198,2.133-5.871,7.27-3.738,11.477C292.567,143.364,295.571,145.071,298.677,145.071z"/>
			<path d="M503.469,128.004c-4.719,0-8.533,3.823-8.533,8.533v332.8c0,14.114-11.486,25.6-25.6,25.6h-204.8v-19.635
				c12.442-4.352,44.851-14.498,76.8-14.498c74.334,0,124.809,16.461,125.312,16.631c2.568,0.853,5.436,0.427,7.68-1.178
				c2.227-1.604,3.541-4.181,3.541-6.921V93.871c0-4.002-2.773-7.467-6.682-8.329c0,0-6.69-1.493-18.125-3.593
				c-4.617-0.853-9.079,2.219-9.933,6.844c-0.853,4.642,2.21,9.088,6.844,9.941c4.361,0.802,8.013,1.51,10.829,2.074v357.188
				c-19.337-5.069-62.276-14.259-119.467-14.259c-37.18,0-73.702,12.211-85.001,16.35c-10.044-4.437-40.405-16.35-77.133-16.35
				c-58.778,0-107.196,9.694-128,14.618V100.475c17.041-4.19,67.371-15.138,128-15.138c31.113,0,57.796,9.685,68.267,14.063v335.804
				c0,3.072,1.655,5.914,4.326,7.424c2.671,1.519,5.965,1.476,8.602-0.111c0.845-0.503,85.393-51.004,160.435-76.015
				c3.49-1.169,5.837-4.42,5.837-8.098V8.537c0-2.799-1.374-5.419-3.678-7.014c-2.287-1.596-5.222-1.963-7.859-0.981
				C346.856,26.15,277.771,69.141,277.079,69.568c-3.994,2.5-5.214,7.765-2.714,11.759c2.492,3.994,7.757,5.214,11.759,2.714
				c0.631-0.401,60.732-37.794,123.477-63.027v331.281c-58.249,20.241-119.066,53.291-145.067,68.087V93.871
				c0-3.234-1.826-6.187-4.719-7.637c-1.468-0.725-36.437-17.963-80.614-17.963c-77.107,0-136.388,16.683-138.88,17.399
				c-3.661,1.041-6.187,4.395-6.187,8.201v375.467c0,2.671,1.263,5.197,3.388,6.81c1.502,1.135,3.311,1.724,5.146,1.724
				c0.785,0,1.57-0.111,2.338-0.333c0.589-0.162,59.597-16.734,134.195-16.734c31.198,0,57.856,9.711,68.267,14.071v20.062h-204.8
				c-14.114,0-25.6-11.486-25.6-25.6v-332.8c0-4.71-3.823-8.533-8.533-8.533s-8.533,3.823-8.533,8.533v332.8
				c0,23.526,19.14,42.667,42.667,42.667h426.667c23.526,0,42.667-19.14,42.667-42.667v-332.8
				C512.002,131.827,508.188,128.004,503.469,128.004z"/>
			<path d="M291.057,191.611c1.51,2.953,4.514,4.659,7.62,4.659c1.297,0,2.628-0.299,3.866-0.93
				c0.503-0.256,50.731-25.771,75.503-33.596c4.489-1.425,6.98-6.221,5.555-10.709c-1.417-4.489-6.178-6.989-10.709-5.572
				c-26.095,8.252-75.981,33.596-78.097,34.671C290.596,182.267,288.924,187.405,291.057,191.611z"/>
			<path d="M291.057,294.011c1.51,2.953,4.514,4.659,7.62,4.659c1.297,0,2.628-0.299,3.866-0.93
				c0.503-0.256,50.731-25.771,75.503-33.596c4.489-1.425,6.98-6.221,5.555-10.709c-1.417-4.489-6.178-6.989-10.709-5.572
				c-26.095,8.252-75.981,33.596-78.097,34.671C290.596,284.667,288.924,289.805,291.057,294.011z"/>
			<path d="M206.748,158.366c-52.693-12.365-112.572,3.388-115.089,4.062c-4.548,1.22-7.253,5.896-6.033,10.453
				c1.024,3.814,4.471,6.323,8.235,6.323c0.734,0,1.476-0.094,2.219-0.29c0.572-0.162,58.223-15.326,106.778-3.934
				c4.565,1.067,9.182-1.775,10.257-6.366C214.189,164.032,211.339,159.441,206.748,158.366z"/>
			<path d="M206.748,209.566c-52.693-12.356-112.572,3.388-115.089,4.062c-4.548,1.22-7.253,5.897-6.033,10.453
				c1.024,3.814,4.471,6.323,8.235,6.323c0.734,0,1.476-0.094,2.219-0.29c0.572-0.162,58.223-15.326,106.778-3.934
				c4.565,1.067,9.182-1.775,10.257-6.366C214.189,215.232,211.339,210.641,206.748,209.566z"/>
			<path d="M291.057,345.211c1.51,2.953,4.514,4.659,7.62,4.659c1.297,0,2.628-0.299,3.866-0.93
				c0.503-0.256,50.731-25.771,75.503-33.596c4.489-1.425,6.98-6.221,5.555-10.709c-1.417-4.488-6.178-6.989-10.709-5.572
				c-26.095,8.252-75.981,33.596-78.097,34.671C290.596,335.867,288.924,341.005,291.057,345.211z"/>
			<path d="M206.748,260.766c-52.693-12.356-112.572,3.379-115.089,4.062c-4.548,1.22-7.253,5.897-6.033,10.453
				c1.024,3.814,4.471,6.332,8.235,6.332c0.734,0,1.476-0.102,2.219-0.299c0.572-0.162,58.223-15.326,106.778-3.934
				c4.565,1.067,9.182-1.775,10.257-6.366C214.189,266.432,211.339,261.841,206.748,260.766z"/>
			<path d="M206.748,363.166c-52.693-12.365-112.572,3.388-115.089,4.062c-4.548,1.22-7.253,5.897-6.033,10.453
				c1.024,3.814,4.471,6.332,8.235,6.332c0.734,0,1.476-0.102,2.219-0.299c0.572-0.162,58.223-15.326,106.778-3.934
				c4.565,1.058,9.182-1.775,10.257-6.366C214.189,368.832,211.339,364.241,206.748,363.166z"/>
			<path d="M206.748,311.966c-52.693-12.365-112.572,3.379-115.089,4.062c-4.548,1.22-7.253,5.897-6.033,10.453
				c1.024,3.814,4.471,6.332,8.235,6.332c0.734,0,1.476-0.102,2.219-0.299c0.572-0.162,58.223-15.326,106.778-3.934
				c4.565,1.067,9.182-1.775,10.257-6.366C214.189,317.632,211.339,313.041,206.748,311.966z"/>
		</g>
  </symbol>

  <symbol id="padlock" viewBox="0 0 24 24">
    <title>Icon candado</title>
    <path d="m18.75 9h-.75v-3c0-3.309-2.691-6-6-6s-6 2.691-6 6v3h-.75c-1.24 0-2.25 1.009-2.25 2.25v10.5c0 1.241 1.01 2.25 2.25 2.25h13.5c1.24 0 2.25-1.009 2.25-2.25v-10.5c0-1.241-1.01-2.25-2.25-2.25zm-10.75-3c0-2.206 1.794-4 4-4s4 1.794 4 4v3h-8zm5 10.722v2.278c0 .552-.447 1-1 1s-1-.448-1-1v-2.278c-.595-.347-1-.985-1-1.722 0-1.103.897-2 2-2s2 .897 2 2c0 .737-.405 1.375-1 1.722z"/>
  </symbol>
  
  <symbol id="cart" viewBox="0 0 416 416">
    <title>Icon cart</title>
    <g>
			<path d="M161.498 320C134.298 320 113.498 340.8 113.498 368C113.498 395.2 134.298 416 161.498 416C188.698 416 209.498 395.2 209.498 368C209.498 340.8 188.698 320 161.498 320ZM161.498 390.4C148.698 390.4 139.098 380.8 139.098 368C139.098 355.2 148.698 345.6 161.498 345.6C174.298 345.6 183.898 355.2 183.898 368C183.898 380.8 174.298 390.4 161.498 390.4Z" />
      <path d="M321.498 320C294.298 320 273.498 340.8 273.498 368C273.498 395.2 294.298 416 321.498 416C348.698 416 369.498 395.2 369.498 368C369.498 340.8 348.698 320 321.498 320ZM321.498 390.4C308.698 390.4 299.098 380.8 299.098 368C299.098 355.2 308.698 345.6 321.498 345.6C334.298 345.6 343.898 355.2 343.898 368C343.898 380.8 334.298 390.4 321.498 390.4Z" />
      <path d="M382.298 64H116.637C111.823 64 107.476 61.1237 105.593 56.6937L84.6032 7.30631C82.7206 2.87629 78.3728 0 73.5593 0H29.498C22.8706 0 17.498 5.37258 17.498 12V20C17.498 26.6274 22.8706 32 29.498 32H52.6618C57.5245 32 61.9064 34.9346 63.7579 39.431L123.348 184.15C125.864 190.26 122.841 197.148 117.513 201.056C104.277 210.764 96.2082 226.742 97.498 244.8C100.698 270.4 123.098 288 147.098 288H357.498C364.125 288 369.498 282.627 369.498 276V268C369.498 261.373 364.125 256 357.498 256H145.498C135.898 256 129.498 249.6 129.498 240C129.498 230.4 135.898 224 145.498 224H356.698C364.698 224 371.098 219.2 372.698 211.2L398.298 83.2C399.898 73.6 391.898 64 382.298 64Z" />
		</g>
  </symbol>

  <symbol id="config" viewBox="0 0 490.667 490.667">
    <title>Icon configurations</title>
    <g>
		  <path d="M488.683,214.592c-1.6-12.437-8.64-23.253-19.307-29.696c-10.475-6.315-23.125-7.488-34.837-3.115
			c-9.301,3.456-19.712-1.323-23.936-10.752c-4.971-11.136-11.115-21.803-18.219-31.701c-6.165-8.576-5.013-19.84,2.645-26.155
			c9.493-7.787,14.784-19.307,14.549-31.595c-0.256-12.48-6.123-24-16.149-31.573c-16.299-12.352-34.091-22.635-52.885-30.549
			c-11.627-4.885-24.597-4.245-35.541,1.792c-10.752,5.909-18.091,16.256-20.096,28.373c-1.643,9.856-10.901,16.235-21.44,15.36
			c-11.925-1.259-24.363-1.259-36.309,0c-10.688,0.875-19.797-5.483-21.419-15.339c-2.005-12.139-9.323-22.485-20.075-28.395
			c-10.987-6.037-23.915-6.699-35.563-1.813c-18.816,7.936-36.608,18.219-52.885,30.549c-10.005,7.595-15.893,19.093-16.128,31.573
			c-0.256,12.288,5.056,23.829,14.549,31.659c7.68,6.315,8.811,17.536,2.645,26.133c-7.125,9.941-13.269,20.587-18.219,31.68
			c-4.245,9.472-14.763,14.208-24.149,10.667c-11.477-4.288-24.085-3.115-34.603,3.2c-10.667,6.421-17.728,17.237-19.328,29.675
			C0.661,224.789,0,235.136,0,245.333s0.661,20.544,1.984,30.741c1.6,12.437,8.64,23.275,19.307,29.696
			c10.517,6.336,23.147,7.552,34.859,3.115c9.131-3.392,19.669,1.28,23.915,10.752c4.949,11.093,11.093,21.76,18.219,31.701
			c6.165,8.576,5.013,19.819-2.667,26.155c-9.472,7.787-14.763,19.307-14.528,31.595c0.256,12.48,6.123,24,16.128,31.595
			c16.256,12.309,34.048,22.592,52.885,30.549c5.163,2.176,10.581,3.243,15.979,3.243c6.763,0,13.483-1.685,19.563-5.056
			c10.752-5.909,18.091-16.277,20.096-28.373c1.643-9.856,11.008-16.405,21.44-15.339c11.925,1.259,24.363,1.259,36.309,0
			c10.603-1.045,19.776,5.483,21.419,15.339c2.027,12.117,9.344,22.464,20.096,28.373c10.987,6.059,23.915,6.677,35.541,1.813
			c18.816-7.936,36.608-18.219,52.885-30.549c10.005-7.595,15.872-19.115,16.128-31.595c0.235-12.288-5.077-23.808-14.592-31.616
			c-7.659-6.315-8.789-17.536-2.624-26.133c7.125-9.899,13.248-20.587,18.219-31.68c4.267-9.493,14.848-14.144,23.936-10.773
			l0.235,0.085c11.52,4.352,24.149,3.136,34.624-3.179c10.688-6.443,17.707-17.259,19.307-29.675
			c1.344-10.155,2.005-20.501,2.005-30.784S490.005,224.704,488.683,214.592z M245.333,341.333c-52.928,0-96-43.072-96-96
			s43.072-96,96-96c52.928,0,96,43.072,96,96S298.261,341.333,245.333,341.333z"/>
	  </g>
  </symbol>

  <symbol id="customer" viewBox="0 0 511.999 511.999">
    <title>Icon customer</title>
    <g>
		  <path d="M438.09,273.32h-39.596c4.036,11.05,6.241,22.975,6.241,35.404v149.65c0,5.182-0.902,10.156-2.543,14.782h65.461
			c24.453,0,44.346-19.894,44.346-44.346v-81.581C512,306.476,478.844,273.32,438.09,273.32z"/>
	  </g>
    <g>
		  <path d="M107.265,308.725c0-12.43,2.205-24.354,6.241-35.404H73.91c-40.754,0-73.91,33.156-73.91,73.91v81.581
			c0,24.452,19.893,44.346,44.346,44.346h65.462c-1.641-4.628-2.543-9.601-2.543-14.783V308.725z"/>
	  </g>
    <g>
		  <path d="M301.261,234.815h-90.522c-40.754,0-73.91,33.156-73.91,73.91v149.65c0,8.163,6.618,14.782,14.782,14.782h208.778
			c8.164,0,14.782-6.618,14.782-14.782v-149.65C375.171,267.971,342.015,234.815,301.261,234.815z"/>
	  </g>
    <g>
		  <path d="M256,38.84c-49.012,0-88.886,39.874-88.886,88.887c0,33.245,18.349,62.28,45.447,77.524
			c12.853,7.23,27.671,11.362,43.439,11.362c15.768,0,30.586-4.132,43.439-11.362c27.099-15.244,45.447-44.28,45.447-77.524
			C344.886,78.715,305.012,38.84,256,38.84z"/>
	  </g>
    <g>
		  <path d="M99.918,121.689c-36.655,0-66.475,29.82-66.475,66.475c0,36.655,29.82,66.475,66.475,66.475
			c9.298,0,18.152-1.926,26.195-5.388c13.906-5.987,25.372-16.585,32.467-29.86c4.98-9.317,7.813-19.946,7.813-31.227
			C166.393,151.51,136.573,121.689,99.918,121.689z"/>
	  </g>
    <g>
		  <path d="M412.082,121.689c-36.655,0-66.475,29.82-66.475,66.475c0,11.282,2.833,21.911,7.813,31.227
			c7.095,13.276,18.561,23.874,32.467,29.86c8.043,3.462,16.897,5.388,26.195,5.388c36.655,0,66.475-29.82,66.475-66.475
			C478.557,151.509,448.737,121.689,412.082,121.689z"/>
	  </g>
  </symbol>

  <symbol id="edit" viewBox="0 0 24 24">
    <title>Icon edit</title>
    <path d="m12.25 2h-1.1c-.33-1.15-1.39-2-2.65-2s-2.32.85-2.65 2h-1.1c-.41 0-.75.34-.75.75v1.5c0 .96.79 1.75 1.75 1.75h5.5c.96 0 1.75-.79 1.75-1.75v-1.5c0-.41-.34-.75-.75-.75z"/><path d="m14.25 3h-.25v1.25c0 1.52-1.23 2.75-2.75 2.75h-5.5c-1.52 0-2.75-1.23-2.75-2.75v-1.25h-.25c-1.52 0-2.75 1.23-2.75 2.75v12.5c0 1.52 1.23 2.75 2.75 2.75h7.38l.22-1.23c.1-.56.36-1.06.76-1.47l.8-.8h-8.16c-.41 0-.75-.34-.75-.75s.34-.75.75-.75h9.5c.05 0 .09 0 .14.02h.01l3.6-3.6v-6.67c0-1.52-1.23-2.75-2.75-2.75zm-1 11.25h-9.5c-.41 0-.75-.34-.75-.75s.34-.75.75-.75h9.5c.41 0 .75.34.75.75s-.34.75-.75.75zm0-3.25h-9.5c-.41 0-.75-.34-.75-.75s.34-.75.75-.75h9.5c.41 0 .75.34.75.75s-.34.75-.75.75z"/><path d="m12.527 24c-.197 0-.389-.078-.53-.22-.173-.173-.251-.419-.208-.661l.53-3.005c.026-.151.1-.291.208-.4l7.425-7.424c.912-.914 1.808-.667 2.298-.177l1.237 1.237c.683.682.683 1.792 0 2.475l-7.425 7.425c-.108.109-.248.182-.4.208l-3.005.53c-.043.008-.087.012-.13.012zm3.005-1.28h.01z"/>
  </symbol>

  <symbol id="label" viewBox="0 0 436.38 436.38">
    <title>Icon label</title>
    <g>
		  <path d="M340.38,23.224H206.396c-8.48,0-16.624,3.376-22.624,9.376L9.372,206.968c-12.496,12.496-12.496,32.752,0,45.264
			l133.984,133.984c12.496,12.496,32.752,12.496,45.248,0l174.4-174.368c6-6.016,9.376-14.16,9.376-22.656V55.224
			C372.38,37.544,358.06,23.224,340.38,23.224z M284.38,135.224c-13.248,0-24-10.752-24-24s10.752-24,24-24s24,10.752,24,24
			S297.628,135.224,284.38,135.224z"/>
	  </g>
    <g>
		  <path d="M404.38,55.224l-0.016,148.944c0,7.376-2.928,14.464-8.16,19.68L218.988,401.064l2.72,2.72
			c12.496,12.496,32.752,12.496,45.248,0l160.032-160c6.016-6,9.392-14.144,9.392-22.624V87.224
			C436.38,69.544,422.06,55.224,404.38,55.224z"/>
	  </g>
  </symbol>

  <symbol id="home" viewBox="0 0 495.398 495.398">
    <title>Icon home</title>
    <g>
			<path d="M487.083,225.514l-75.08-75.08V63.704c0-15.682-12.708-28.391-28.413-28.391c-15.669,0-28.377,12.709-28.377,28.391
				v29.941L299.31,37.74c-27.639-27.624-75.694-27.575-103.27,0.05L8.312,225.514c-11.082,11.104-11.082,29.071,0,40.158
				c11.087,11.101,29.089,11.101,40.172,0l187.71-187.729c6.115-6.083,16.893-6.083,22.976-0.018l187.742,187.747
				c5.567,5.551,12.825,8.312,20.081,8.312c7.271,0,14.541-2.764,20.091-8.312C498.17,254.586,498.17,236.619,487.083,225.514z"/>
			<path d="M257.561,131.836c-5.454-5.451-14.285-5.451-19.723,0L72.712,296.913c-2.607,2.606-4.085,6.164-4.085,9.877v120.401
				c0,28.253,22.908,51.16,51.16,51.16h81.754v-126.61h92.299v126.61h81.755c28.251,0,51.159-22.907,51.159-51.159V306.79
				c0-3.713-1.465-7.271-4.085-9.877L257.561,131.836z"/>
		</g>
  </symbol>
  
  <symbol id="less" viewBox="0 0 512 512">
    <title>icon less (menos)</title>
    <path d="m256 0c-141.164062 0-256 114.835938-256 256s114.835938 256 256 256 256-114.835938 256-256-114.835938-256-256-256zm112 277.332031h-224c-11.777344 0-21.332031-9.554687-21.332031-21.332031s9.554687-21.332031 21.332031-21.332031h224c11.777344 0 21.332031 9.554687 21.332031 21.332031s-9.554687 21.332031-21.332031 21.332031zm0 0"/>
  </symbol>

  <symbol id="notif" viewBox="0 0 511.156 511.156">
    <title>Icon notifications</title>
    <path d="m184.904 465.044c11.999 27.127 39.154 46.112 70.674 46.112s58.674-18.985 70.674-46.112z"/><path d="m255.573 48.836c20.8 0 40.772 3.67 59.306 10.389v-2.283c0-31.398-25.544-56.942-56.941-56.942h-4.719c-31.398 0-56.942 25.544-56.942 56.942v2.254c18.524-6.699 38.49-10.36 59.296-10.36z"/><path d="m442.747 435.044h-374.338c-7.082 0-13.569-4.776-15.042-11.704-1.458-6.859 1.668-13.629 8.01-16.559 1.505-.976 12.833-8.897 24.174-32.862 20.829-44.01 25.201-106.005 25.201-150.263 0-79.855 64.967-144.82 144.821-144.82 79.665 0 144.512 64.652 144.82 144.245.007.191.011.383.011.575 0 44.258 4.372 106.253 25.201 150.263 11.341 23.965 22.668 31.887 24.174 32.862 6.342 2.93 9.469 9.699 8.01 16.559-1.473 6.927-7.959 11.704-15.042 11.704zm7.2-28.157h.01z"/>
  </symbol>

  <symbol id="delivery" viewBox="0 0 512 512">
    <title>Icon delivery</title>
    <path d="M54.376,238h50a7,7,0,0,0,0-14h-50a7,7,0,1,0,0,14Z"/><path d="M34.376,288h70a7,7,0,0,0,0-14h-70a7,7,0,1,0,0,14Z"/><path d="M104.376,174h-30a7,7,0,0,0,0,14h30a7,7,0,0,0,0-14Z"/><polygon points="240.042 172.085 229.363 165.919 193.014 186.905 203.693 193.071 240.042 172.085"/><circle cx="207.624" cy="349.37" r="28"/><path d="M411.372,184H338v49H461.7l-40.749-44.594A13.223,13.223,0,0,0,411.372,184Z"/><path d="M439.029,342h18.6c7.168,0,13.376-5.462,13.376-12.63V247H338v95h18.219c3.343-19,20.632-35,41.405-35S435.686,323,439.029,342Z"/><path d="M249.029,342H324V147.63A12.616,12.616,0,0,0,311.1,135H147.624A12.386,12.386,0,0,0,135,147.63V329.37A12.386,12.386,0,0,0,147.624,342h18.6c3.343-19,20.632-35,41.405-35S245.686,323,249.029,342Zm-19.666-60.88a6.989,6.989,0,0,1-3.5-.938l-50.358-29.071a7,7,0,0,1-3.5-6.062V186.907a7,7,0,0,1,3.5-6.062l50.355-29.071a7,7,0,0,1,7,0l50.5,29.071A7.137,7.137,0,0,1,287,186.907v58.142a7.136,7.136,0,0,1-3.643,6.062l-50.422,29.071A7.251,7.251,0,0,1,229.363,281.12Z"/><circle cx="397.624" cy="349.37" r="28"/><polygon points="236 261.996 273 241.008 273 199.028 236 220.016 236 261.996"/><polygon points="254.042 180.168 217.693 201.154 229.363 207.892 265.712 186.905 254.042 180.168"/><polygon points="186 241.008 222 261.996 222 220.016 186 199.028 186 241.008"/>
  </symbol>

  <symbol id="profile" viewBox="0 0 45.532 45.532">
    <title>Icon profile (perfil)</title>
    <g>
	    <path d="M22.766,0.001C10.194,0.001,0,10.193,0,22.766s10.193,22.765,22.766,22.765c12.574,0,22.766-10.192,22.766-22.765
		S35.34,0.001,22.766,0.001z M22.766,6.808c4.16,0,7.531,3.372,7.531,7.53c0,4.159-3.371,7.53-7.531,7.53
		c-4.158,0-7.529-3.371-7.529-7.53C15.237,10.18,18.608,6.808,22.766,6.808z M22.761,39.579c-4.149,0-7.949-1.511-10.88-4.012
		c-0.714-0.609-1.126-1.502-1.126-2.439c0-4.217,3.413-7.592,7.631-7.592h8.762c4.219,0,7.619,3.375,7.619,7.592
		c0,0.938-0.41,1.829-1.125,2.438C30.712,38.068,26.911,39.579,22.761,39.579z"/>
    </g>
  </symbol>

  <symbol id="plus" viewBox="0 0 300.003 300.003">
    <title>Icon plus (mas)</title>
    <g>
		  <path d="M150,0C67.159,0,0.001,67.159,0.001,150c0,82.838,67.157,150.003,149.997,150.003S300.002,232.838,300.002,150
			C300.002,67.159,232.839,0,150,0z M213.281,166.501h-48.27v50.469c-0.003,8.463-6.863,15.323-15.328,15.323
			c-8.468,0-15.328-6.86-15.328-15.328v-50.464H87.37c-8.466-0.003-15.323-6.863-15.328-15.328c0-8.463,6.863-15.326,15.328-15.328
			l46.984,0.003V91.057c0-8.466,6.863-15.328,15.326-15.328c8.468,0,15.331,6.863,15.328,15.328l0.003,44.787l48.265,0.005
			c8.466-0.005,15.331,6.86,15.328,15.328C228.607,159.643,221.742,166.501,213.281,166.501z"/>
	  </g>
  </symbol>

  <symbol id="product" viewBox="-33 0 512 512.002">
    <title>Icon product</title>
    <path d="m136.289062 271h180c8.292969 0 15-6.710938 15-15v-181c0-8.289062-6.707031-15-15-15h-45v-15c0-24.8125-20.1875-45-45-45s-45 20.1875-45 45v15h-45c-8.289062 0-15 6.710938-15 15v181c0 8.289062 6.710938 15 15 15zm75-226c0-8.277344 6.738282-15 15-15 8.261719 0 15 6.722656 15 15v15h-30zm0 0"/><path d="m444.816406 248.234375c-2.695312-4.480469-7.589844-7.234375-12.832031-7.234375-26.429687 0-50.675781 14.667969-62.945313 38.078125l-46.011718 87.8125c-7.820313 14.882813-23.085938 24.109375-39.871094 24.109375h-101.867188c-8.289062 0-15-6.710938-15-15s6.710938-15 15-15h101.863282c5.597656 0 10.695312-3.074219 13.304687-8.042969 2.597657-4.960937 10.445313-19.941406 17.191407-32.816406 2.125-4.054687 1.976562-8.925781-.394532-12.84375-2.375-3.914063-6.621094-6.296875-11.199218-6.296875h-155.921876c-20.039062 0-38.847656 7.808594-53.027343 21.972656l-88.710938 88.710938c-5.859375 5.859375-5.859375 15.351562 0 21.210937l75 74.710938c2.929688 2.929687 6.769531 4.398437 10.605469 4.398437s7.675781-1.46875 10.605469-4.398437l56.894531-56.605469h125.652344c39.171875 0 74.824218-21.5625 93.019531-56.265625l69.082031-131.761719c2.460938-4.644531 2.285156-10.238281-.4375-14.738281zm0 0"/>
  </symbol>

  <symbol id="save" viewBox="0 0 512.007 512.007">
    <title>Icon save</title>
    <g><path d="m142 143.003h139v-143c-49.379 0-107.674 0-154 0v128c0 8.271 6.729 15 15 15z"/><path d="m345 128.003v-128c-9.97 0-21.461 0-34 0v143h19c8.271 0 15-6.729 15-15z"/><path d="m127 512.003h218v-161h-218z"/><path d="m511.927 126.537c-.279-2.828-1.38-5.667-3.315-8.027-.747-.913 6.893 6.786-114.006-114.113-2.882-2.882-6.794-4.396-10.612-4.394-.789 0-3.925 0-8.995 0v128c0 24.813-20.187 45-45 45-14.028 0-186.064 0-188 0-24.813 0-45-20.187-45-45v-128c-29.589 0-49.82 0-52 0-24.813 0-45 20.187-45 45v422c0 24.813 20.187 45 45 45h52c0-10.815 0-201.797 0-210 0-24.813 20.187-45 45-45h188c24.813 0 45 20.187 45 45v210h92c24.813 0 45-20.187 45-45 .001-364.186.041-339.316-.072-340.466z"/><path d="m330 287.003h-188c-8.271 0-15 6.729-15 15v19h218v-19c0-8.271-6.729-15-15-15z"/></g>
  </symbol>

  <symbol id="search" viewBox="0 0 310.42 310.42">
    <title>Icon search (buscar)</title>
    <g>
		  <path d="M273.587,214.965c49.11-49.111,49.109-129.021,0-178.132c-49.111-49.111-129.02-49.111-178.13,0
			C53.793,78.497,47.483,140.462,76.51,188.85c0,0,2.085,3.498-0.731,6.312c-16.065,16.064-64.263,64.263-64.263,64.263
			c-12.791,12.79-15.836,30.675-4.493,42.02l1.953,1.951c11.343,11.345,29.229,8.301,42.019-4.49c0,0,48.096-48.097,64.128-64.128
			c2.951-2.951,6.448-0.866,6.448-0.866C169.958,262.938,231.923,256.629,273.587,214.965z M118.711,191.71
			c-36.288-36.288-36.287-95.332,0.001-131.62c36.288-36.287,95.332-36.288,131.619,0c36.288,36.287,36.288,95.332,0,131.62
			C214.043,227.996,155,227.996,118.711,191.71z"/>
		  <g>
			  <path d="M126.75,118.424c-1.689,0-3.406-0.332-5.061-1.031c-6.611-2.798-9.704-10.426-6.906-17.038
				c17.586-41.559,65.703-61.062,107.261-43.476c6.611,2.798,9.704,10.426,6.906,17.038c-2.799,6.612-10.425,9.703-17.039,6.906
				c-28.354-11.998-61.186,1.309-73.183,29.663C136.629,115.445,131.815,118.424,126.75,118.424z"/>
		  </g>
	  </g>
  </symbol>

  <symbol id="telephone" viewBox="0 0 512.006 512.006">
    <title>Icon telephone</title>
    <g>
			<path d="M502.05,407.127l-56.761-37.844L394.83,335.65c-9.738-6.479-22.825-4.355-30.014,4.873l-31.223,40.139
				c-6.707,8.71-18.772,11.213-28.39,5.888c-21.186-11.785-46.239-22.881-101.517-78.23c-55.278-55.349-66.445-80.331-78.23-101.517
				c-5.325-9.618-2.822-21.683,5.888-28.389l40.139-31.223c9.227-7.188,11.352-20.275,4.873-30.014l-32.6-48.905L104.879,9.956
				C98.262,0.03,85.016-2.95,74.786,3.185L29.95,30.083C17.833,37.222,8.926,48.75,5.074,62.277
				C-7.187,106.98-9.659,205.593,148.381,363.633s256.644,155.56,301.347,143.298c13.527-3.851,25.055-12.758,32.194-24.876
				l26.898-44.835C514.956,426.989,511.976,413.744,502.05,407.127z"/>
			<path d="M291.309,79.447c82.842,0.092,149.977,67.226,150.069,150.069c0,4.875,3.952,8.828,8.828,8.828
				c4.875,0,8.828-3.952,8.828-8.828c-0.102-92.589-75.135-167.622-167.724-167.724c-4.875,0-8.828,3.952-8.828,8.828
				C282.481,75.494,286.433,79.447,291.309,79.447z"/>
			<path d="M291.309,132.412c53.603,0.063,97.04,43.501,97.103,97.103c0,4.875,3.952,8.828,8.828,8.828
				c4.875,0,8.828-3.952,8.828-8.828c-0.073-63.349-51.409-114.686-114.759-114.759c-4.875,0-8.828,3.952-8.828,8.828
				C282.481,128.46,286.433,132.412,291.309,132.412z"/>
			<path d="M291.309,185.378c24.365,0.029,44.109,19.773,44.138,44.138c0,4.875,3.952,8.828,8.828,8.828
				c4.875,0,8.828-3.952,8.828-8.828c-0.039-34.111-27.682-61.754-61.793-61.793c-4.875,0-8.828,3.952-8.828,8.828
				C282.481,181.426,286.433,185.378,291.309,185.378z"/>
		</g>
  </symbol>

  <symbol id="user" viewBox="-42 0 512 512.002">
    <title>Icon user</title>
    <path d="m210.351562 246.632812c33.882813 0 63.222657-12.152343 87.195313-36.128906 23.972656-23.972656 36.125-53.304687 36.125-87.191406 0-33.875-12.152344-63.210938-36.128906-87.191406-23.976563-23.96875-53.3125-36.121094-87.191407-36.121094-33.886718 0-63.21875 12.152344-87.191406 36.125s-36.128906 53.308594-36.128906 87.1875c0 33.886719 12.15625 63.222656 36.132812 87.195312 23.976563 23.96875 53.3125 36.125 87.1875 36.125zm0 0"/><path d="m426.128906 393.703125c-.691406-9.976563-2.089844-20.859375-4.148437-32.351563-2.078125-11.578124-4.753907-22.523437-7.957031-32.527343-3.308594-10.339844-7.808594-20.550781-13.371094-30.335938-5.773438-10.15625-12.554688-19-20.164063-26.277343-7.957031-7.613282-17.699219-13.734376-28.964843-18.199219-11.226563-4.441407-23.667969-6.691407-36.976563-6.691407-5.226563 0-10.28125 2.144532-20.042969 8.5-6.007812 3.917969-13.035156 8.449219-20.878906 13.460938-6.707031 4.273438-15.792969 8.277344-27.015625 11.902344-10.949219 3.542968-22.066406 5.339844-33.039063 5.339844-10.972656 0-22.085937-1.796876-33.046874-5.339844-11.210938-3.621094-20.296876-7.625-26.996094-11.898438-7.769532-4.964844-14.800782-9.496094-20.898438-13.46875-9.75-6.355468-14.808594-8.5-20.035156-8.5-13.3125 0-25.75 2.253906-36.972656 6.699219-11.257813 4.457031-21.003906 10.578125-28.96875 18.199219-7.605469 7.28125-14.390625 16.121094-20.15625 26.273437-5.558594 9.785157-10.058594 19.992188-13.371094 30.339844-3.199219 10.003906-5.875 20.945313-7.953125 32.523437-2.058594 11.476563-3.457031 22.363282-4.148437 32.363282-.679688 9.796875-1.023438 19.964844-1.023438 30.234375 0 26.726562 8.496094 48.363281 25.25 64.320312 16.546875 15.746094 38.441406 23.734375 65.066406 23.734375h246.53125c26.625 0 48.511719-7.984375 65.0625-23.734375 16.757813-15.945312 25.253906-37.585937 25.253906-64.324219-.003906-10.316406-.351562-20.492187-1.035156-30.242187zm0 0"/>
  </symbol>

  <symbol id="vendors" viewBox="0 0 80.13 80.13">
    <title>Icon vendors (proveedor)</title>
    <g>
	    <path d="M48.355,17.922c3.705,2.323,6.303,6.254,6.776,10.817c1.511,0.706,3.188,1.112,4.966,1.112
		c6.491,0,11.752-5.261,11.752-11.751c0-6.491-5.261-11.752-11.752-11.752C53.668,6.35,48.453,11.517,48.355,17.922z M40.656,41.984
		c6.491,0,11.752-5.262,11.752-11.752s-5.262-11.751-11.752-11.751c-6.49,0-11.754,5.262-11.754,11.752S34.166,41.984,40.656,41.984
		z M45.641,42.785h-9.972c-8.297,0-15.047,6.751-15.047,15.048v12.195l0.031,0.191l0.84,0.263
		c7.918,2.474,14.797,3.299,20.459,3.299c11.059,0,17.469-3.153,17.864-3.354l0.785-0.397h0.084V57.833
		C60.688,49.536,53.938,42.785,45.641,42.785z M65.084,30.653h-9.895c-0.107,3.959-1.797,7.524-4.47,10.088
		c7.375,2.193,12.771,9.032,12.771,17.11v3.758c9.77-0.358,15.4-3.127,15.771-3.313l0.785-0.398h0.084V45.699
		C80.13,37.403,73.38,30.653,65.084,30.653z M20.035,29.853c2.299,0,4.438-0.671,6.25-1.814c0.576-3.757,2.59-7.04,5.467-9.276
		c0.012-0.22,0.033-0.438,0.033-0.66c0-6.491-5.262-11.752-11.75-11.752c-6.492,0-11.752,5.261-11.752,11.752
		C8.283,24.591,13.543,29.853,20.035,29.853z M30.589,40.741c-2.66-2.551-4.344-6.097-4.467-10.032
		c-0.367-0.027-0.73-0.056-1.104-0.056h-9.971C6.75,30.653,0,37.403,0,45.699v12.197l0.031,0.188l0.84,0.265
		c6.352,1.983,12.021,2.897,16.945,3.185v-3.683C17.818,49.773,23.212,42.936,30.589,40.741z"/>
    </g>
  </symbol>

  <symbol id="menu" viewBox="0 0 512 512">
    <title>Icon Menu</title>
    <g>
		  <path d="M467,61H165c-24.82,0-45,20.19-45,45c0,24.82,20.18,45,45,45h302c24.81,0,45-20.18,45-45C512,81.19,491.81,61,467,61z"/>
	  </g>
    <g>
		  <path d="M467,211H165c-24.82,0-45,20.19-45,45c0,24.82,20.18,45,45,45h302c24.81,0,45-20.18,45-45C512,231.19,491.81,211,467,211z
			"/>
	  </g>
    <g>
		  <path d="M467,361H165c-24.82,0-45,20.19-45,45c0,24.82,20.18,45,45,45h302c24.81,0,45-20.18,45-45C512,381.19,491.81,361,467,361z
			"/>
	  </g>
    <g>
		  <path d="M45,61C20.18,61,0,81.19,0,106c0,24.82,20.18,45,45,45c24.81,0,45-20.18,45-45C90,81.19,69.81,61,45,61z"/>
	  </g>
    <g>
		  <path d="M45,211c-24.82,0-45,20.19-45,45c0,24.82,20.18,45,45,45c24.81,0,45-20.18,45-45C90,231.19,69.81,211,45,211z"/>
	  </g>
    <g>
		  <path d="M45,361c-24.82,0-45,20.19-45,45c0,24.82,20.18,45,45,45c24.81,0,45-20.18,45-45C90,381.19,69.81,361,45,361z"/>
	  </g>
  </symbol>

  <symbol>
    <title></title>
  </symbol>
</svg>